# xmcd
#
# Track frame offsets:
#	150
#	10348
#	21448
#	32773
#	45973
#	57823
#	68720
#	78807
#	92832
#	103707
#	115482
#	126282
#
# Disc length: 1813 seconds
# Revision: 4
# Processed by: cddbd v1.5.2PL0 Copyright (c) Steve Scherf et al.
# Submitted via: dBpowerAMP V12.0
#
DISCID=9507130c
DTITLE=Butcher Holler - A Tribute to Loretta Lynn
DYEAR=2010
DGENRE=Country
TTITLE0=Fist City
TTITLE1=A Man I Hardly Know
TTITLE2=I'm a Honky Tonk Girl
TTITLE3=Whispering Sea
TTITLE4=You Wanna Give Me a Lift
TTITLE5=Don't Come Home a Drinkin' (With Lovin' on Your Mind)
TTITLE6=Who Says God Is Dead
TTITLE7=Another Man Loved Me Last Night
TTITLE8=You Ain't Woman Enough (To Take My Man)
TTITLE9=Deep as Your Pocket
TTITLE10=This Haunted House
TTITLE11=You're Lookin' at Country
EXTD=
EXTT0=
EXTT1=
EXTT2=
EXTT3=
EXTT4=
EXTT5=
EXTT6=
EXTT7=
EXTT8=
EXTT9=
EXTT10=
EXTT11=
PLAYORDER=
